<svg height='300px' width='300px'  fill="#FFFFFF" xmlns:x="http://ns.adobe.com/Extensibility/1.0/" xmlns:i="http://ns.adobe.com/AdobeIllustrator/10.0/" xmlns:graph="http://ns.adobe.com/Graphs/1.0/" xmlns="http://www.w3.org/2000/svg" xmlns:xlink="http://www.w3.org/1999/xlink" version="1.1" x="0px" y="0px" viewBox="0 0 64 64" enable-background="new 0 0 64 64" xml:space="preserve"><metadata><sfw xmlns="http://ns.adobe.com/SaveForWeb/1.0/"><slices></slices><sliceSourceBounds y="-8160" x="-8165" width="16389" height="16384" bottomLeftOrigin="true"></sliceSourceBounds></sfw></metadata><g><g><path d="M48,5.5H16c-0.276,0-0.5,0.224-0.5,0.5v52c0,0.276,0.224,0.5,0.5,0.5h32c0.276,0,0.5-0.224,0.5-0.5V6    C48.5,5.724,48.276,5.5,48,5.5z M47.5,57.5h-31v-51h31V57.5z"></path><path d="M20,50.5h24c0.276,0,0.5-0.224,0.5-0.5V10c0-0.276-0.224-0.5-0.5-0.5H20c-0.276,0-0.5,0.224-0.5,0.5v40    C19.5,50.276,19.724,50.5,20,50.5z M20.5,10.5h23v39h-23V10.5z"></path><circle cx="32" cy="54" r="2"></circle><path d="M29.354,25.646c-0.195-0.195-0.512-0.195-0.707,0l-2,2c-0.195,0.195-0.195,0.512,0,0.707l2,2    C28.744,30.451,28.872,30.5,29,30.5s0.256-0.049,0.354-0.146c0.195-0.195,0.195-0.512,0-0.707L27.707,28l1.646-1.646    C29.549,26.158,29.549,25.842,29.354,25.646z"></path><path d="M33.121,23.515c-0.266-0.066-0.539,0.095-0.606,0.364l-2,8c-0.067,0.268,0.096,0.539,0.364,0.606    C30.919,32.495,30.96,32.5,31,32.5c0.224,0,0.428-0.151,0.484-0.379l2-8C33.552,23.854,33.39,23.582,33.121,23.515z"></path><path d="M35.354,25.646c-0.195-0.195-0.512-0.195-0.707,0s-0.195,0.512,0,0.707L36.293,28l-1.646,1.646    c-0.195,0.195-0.195,0.512,0,0.707C34.744,30.451,34.872,30.5,35,30.5s0.256-0.049,0.354-0.146l2-2    c0.195-0.195,0.195-0.512,0-0.707L35.354,25.646z"></path></g></g></svg>